<?xml version="1.0" standalone="no"?>
<!DOCTYPE svg PUBLIC "-//W3C//DTD SVG 20010904//EN"
 "http://www.w3.org/TR/2001/REC-SVG-20010904/DTD/svg10.dtd">
<svg version="1.0" xmlns="http://www.w3.org/2000/svg"
 width="170.000000pt" height="57.000000pt" viewBox="0 0 170.000000 57.000000"
 preserveAspectRatio="xMidYMid meet">

<g transform="translate(0.000000,57.000000) scale(0.100000,-0.100000)"
fill="#000000" stroke="none">
<path d="M345 506 c-5 -3 -26 -7 -46 -10 -41 -7 -79 -38 -79 -66 0 -36 33 -54
133 -75 21 -4 27 -11 27 -30 l0 -25 -150 0 c-127 0 -150 -2 -150 -15 0 -13 44
-15 334 -15 213 0 337 -4 341 -10 4 -6 85 -10 211 -10 175 0 204 2 204 15 0
12 -16 15 -80 15 l-80 0 0 75 0 75 70 0 c56 0 70 3 70 15 0 13 -29 15 -200 15
l-200 0 0 -80 0 -80 -145 0 -145 0 0 30 c0 25 4 30 25 30 31 0 96 26 107 43
21 32 8 58 -38 79 -43 18 -182 35 -209 24z m161 -51 c48 -31 -2 -65 -96 -65
-32 0 -71 5 -85 12 -26 12 -34 42 -13 54 42 26 153 26 194 -1z m424 -100 l0
-75 -50 0 -50 0 0 75 0 75 50 0 50 0 0 -75z"/>
<path d="M1250 340 l0 -160 45 0 45 0 0 95 0 95 70 0 c56 0 70 3 70 15 0 12
-14 15 -70 15 l-70 0 0 50 0 50 -45 0 -45 0 0 -160z"/>
<path d="M1466 243 l-30 -16 35 -18 c41 -22 68 -23 93 -4 22 17 22 17 -21 39
-39 19 -40 19 -77 -1z"/>
<path d="M160 215 c0 -13 31 -15 220 -15 l220 0 0 -50 0 -50 40 0 40 0 0 53
c0 29 -5 58 -12 65 -9 9 -80 12 -260 12 -214 0 -248 -2 -248 -15z"/>
</g>
</svg>
