<?xml version="1.0" standalone="no"?>
<!DOCTYPE svg PUBLIC "-//W3C//DTD SVG 20010904//EN"
 "http://www.w3.org/TR/2001/REC-SVG-20010904/DTD/svg10.dtd">
<svg version="1.0" xmlns="http://www.w3.org/2000/svg"
 width="500.000000pt" height="500.000000pt" viewBox="0 0 500.000000 500.000000"
 preserveAspectRatio="xMidYMid meet">

<g transform="translate(0.000000,500.000000) scale(0.100000,-0.100000)"
fill="#000000" stroke="none">
<path d="M0 2500 l0 -2500 110 0 110 0 0 230 0 230 2275 0 2275 0 0 40 0 40
-2272 2 -2273 3 0 615 0 615 1068 3 1067 2 0 140 0 140 -475 0 -475 0 0 90 c0
50 3 90 8 90 41 0 225 36 292 56 201 62 351 173 400 299 32 81 33 196 1 277
-60 155 -250 276 -521 330 -101 20 -145 23 -355 23 -271 0 -360 -12 -527 -69
-238 -81 -365 -215 -376 -398 -11 -183 100 -332 318 -424 80 -34 245 -76 353
-89 l47 -6 0 -90 0 -89 -415 0 -415 0 0 865 0 865 2274 0 c1810 0 2275 3 2279
13 3 6 6 -318 6 -720 l1 -733 -70 0 -70 0 0 470 0 470 -180 0 -180 0 0 -1255
0 -1255 180 0 180 0 2 638 3 637 68 3 67 3 0 -1031 0 -1030 110 0 110 0 0
2500 0 2500 -1247 0 -1248 0 261 -138 c144 -75 621 -326 1061 -557 l800 -420
-1064 -3 c-586 -1 -1542 -1 -2125 0 l-1061 3 979 514 c538 283 1015 534 1059
558 l80 43 -1247 0 -1248 0 0 -2500z m1505 435 c172 -33 265 -104 265 -200 0
-97 -81 -160 -256 -201 -108 -26 -452 -26 -564 -1 -106 24 -195 70 -226 117
-30 45 -34 111 -11 157 39 75 173 126 392 147 77 8 321 -4 400 -19z"/>
<path d="M2680 2210 l0 -820 43 0 c266 3 612 31 633 53 3 3 0 66 -7 141 -10
113 -15 136 -28 136 -9 0 -70 -7 -136 -15 -66 -8 -128 -15 -137 -15 -17 0 -18
32 -18 530 l0 530 145 0 145 0 0 140 0 140 -320 0 -320 0 0 -820z"/>
<path d="M3460 2210 l0 -820 93 0 c256 1 602 31 625 55 4 4 -17 277 -21 281
-1 1 -33 -4 -72 -11 -38 -7 -116 -17 -172 -20 l-103 -7 0 531 0 531 160 0 160
0 0 140 0 140 -335 0 -335 0 0 -820z"/>
<path d="M350 1460 l0 -140 690 0 690 0 0 -270 0 -270 180 0 180 0 0 410 0
410 -870 0 -870 0 0 -140z"/>
</g>
</svg>
