<?xml version="1.0" standalone="no"?>
<!DOCTYPE svg PUBLIC "-//W3C//DTD SVG 20010904//EN"
 "http://www.w3.org/TR/2001/REC-SVG-20010904/DTD/svg10.dtd">
<svg version="1.0" xmlns="http://www.w3.org/2000/svg"
 width="500.000000pt" height="500.000000pt" viewBox="0 0 500.000000 500.000000"
 preserveAspectRatio="xMidYMid meet">

<g transform="translate(0.000000,500.000000) scale(0.100000,-0.100000)"
fill="#000000" stroke="none">
<path d="M0 2500 l0 -2500 2500 0 2500 0 0 2500 0 2500 -2500 0 -2500 0 0
-2500z m3089 975 l573 -300 -581 -3 c-320 -1 -843 -1 -1163 0 l-582 3 575 302
c316 166 581 301 589 300 9 -1 274 -137 589 -302z m581 -1305 l0 -960 -1170 0
-1170 0 0 960 0 960 1170 0 1170 0 0 -960z"/>
<path d="M1450 2810 c0 -20 7 -20 1035 -20 1028 0 1035 0 1035 20 0 20 -7 20
-1035 20 -1028 0 -1035 0 -1035 -20z"/>
<path d="M1978 2644 c-78 -42 -76 -178 2 -219 16 -8 52 -15 80 -15 43 0 50 -3
50 -20 0 -19 -7 -20 -110 -20 l-110 0 0 -40 0 -40 270 0 270 0 0 40 0 40 -115
0 c-108 0 -115 1 -115 20 0 18 7 20 56 20 67 0 107 21 129 66 28 59 13 121
-41 163 -25 19 -39 21 -183 21 -118 -1 -163 -4 -183 -16z m318 -72 c17 -11 22
-35 13 -59 -8 -22 -12 -23 -147 -23 -145 0 -162 5 -162 45 0 40 17 45 155 45
71 0 135 -4 141 -8z"/>
<path d="M2530 2365 l0 -295 165 0 165 0 0 40 c0 39 -1 40 -35 40 l-35 0 0
215 0 215 35 0 c34 0 35 1 35 40 l0 40 -165 0 -165 0 0 -295z m170 0 l0 -215
-40 0 -40 0 0 215 0 215 40 0 40 0 0 -215z"/>
<path d="M2922 2363 l3 -298 43 -3 42 -3 0 160 0 161 35 0 c34 0 35 1 35 40 0
39 -1 40 -35 40 l-35 0 0 100 0 100 -45 0 -45 0 2 -297z"/>
<path d="M1920 2215 l0 -35 191 0 192 0 -7 -37 c-3 -21 -9 -48 -12 -60 -6 -21
-3 -23 40 -23 42 0 46 2 52 28 3 15 10 43 15 62 5 19 9 50 9 68 l0 32 -240 0
-240 0 0 -35z"/>
<path d="M1460 1900 c0 -20 7 -20 1035 -20 1028 0 1035 0 1035 20 0 20 -7 20
-1035 20 -1028 0 -1035 0 -1035 -20z"/>
</g>
</svg>
